<?xml version="1.0" encoding="UTF-8"?><svg id="Layer_1" xmlns="http://www.w3.org/2000/svg" viewBox="0 0 99.15 95.37"><path d="M75.74,93.67l-22.81-11.39c-1.53-.77-3.35-.73-4.85,.1l-22.32,12.33c-3.78,2.09-8.32-1.06-7.67-5.34l3.79-25.21c.25-1.7-.34-3.41-1.59-4.58L1.66,42.16c-3.16-2.95-1.56-8.24,2.7-8.95l25.15-4.19c1.69-.28,3.14-1.38,3.86-2.93L44.18,3c1.83-3.91,7.35-4.03,9.35-.19l11.76,22.63c.79,1.52,2.28,2.56,3.98,2.77l25.3,3.14c4.29,.53,6.1,5.75,3.07,8.83l-17.89,18.17c-1.2,1.22-1.73,2.96-1.4,4.64l4.83,25.04c.82,4.24-3.58,7.58-7.45,5.65Z"/></svg>